<svg version="1.1" xmlns="http://www.w3.org/2000/svg" viewBox="0 0 338 352.2797864609923" width="1014" height="1056.839359382977" filter="invert(93%) hue-rotate(180deg)">
  <!-- svg-source:excalidraw -->
  
  <defs>
    <style class="style-fonts">
      @font-face {
        font-family: "Virgil";
        src: url("https://excalidraw.com/Virgil.woff2");
      }
      @font-face {
        font-family: "Cascadia";
        src: url("https://excalidraw.com/Cascadia.woff2");
      }
      @font-face {
        font-family: "Assistant";
        src: url("https://excalidraw.com/Assistant-Regular.woff2");
      }
    </style>
    
  </defs>
  <g stroke-linecap="round" transform="translate(10 48.029864572776034) rotate(0 159 147.12496094410812)"><path d="M7.86 8.16 C7.86 8.16, 7.86 8.16, 7.86 8.16 M7.86 8.16 C7.86 8.16, 7.86 8.16, 7.86 8.16 M1.43 27.75 C8.64 20.43, 18.38 7.67, 24.4 1.33 M1.43 27.75 C9.79 16.44, 16.44 6.5, 24.4 1.33 M0.91 40.54 C14.7 28.4, 30.35 6.87, 36.34 -0.21 M0.91 40.54 C10.61 29.19, 21.56 16.59, 36.34 -0.21 M1.04 52.58 C17.64 32.1, 29.77 15.54, 46.97 -0.25 M1.04 52.58 C14.18 39.82, 25.33 23.26, 46.97 -0.25 M1.18 64.62 C15.65 46.96, 29.21 32.47, 57.6 -0.28 M1.18 64.62 C17.67 41.4, 38 19.62, 57.6 -0.28 M1.31 76.67 C26.16 43.69, 49.47 16.76, 67.57 0.44 M1.31 76.67 C20.54 55.87, 42.42 29.73, 67.57 0.44 M0.79 89.46 C25.26 66.45, 44.33 44.84, 78.2 0.41 M0.79 89.46 C23.36 64.3, 42.94 36.25, 78.2 0.41 M0.92 101.5 C30.9 69.29, 57.7 34.26, 88.83 0.37 M0.92 101.5 C36.68 60.56, 69.18 24.54, 88.83 0.37 M1.05 113.54 C22.2 85.52, 44.24 61, 99.46 0.34 M1.05 113.54 C33.98 76.66, 61.1 45.94, 99.46 0.34 M1.19 125.58 C34.86 75.53, 74.43 30.79, 110.09 0.3 M1.19 125.58 C37.49 84.99, 68.24 50.31, 110.09 0.3 M0.66 138.38 C28.23 109.55, 60.07 74.97, 120.72 0.27 M0.66 138.38 C41.97 91.23, 81.73 45.51, 120.72 0.27 M0.8 150.42 C54.43 92.92, 104.44 32.08, 131.35 0.23 M0.8 150.42 C50.06 89.37, 103.38 30.2, 131.35 0.23 M0.93 162.46 C52.4 101.54, 110.46 36.06, 141.98 0.2 M0.93 162.46 C46.75 114.09, 89.99 64.85, 141.98 0.2 M1.06 174.5 C48.2 120.16, 91.77 69.37, 152.61 0.16 M1.06 174.5 C40.99 128.36, 80.66 79.52, 152.61 0.16 M0.54 187.3 C45.54 137.33, 91.25 83.57, 163.24 0.13 M0.54 187.3 C63.74 113.04, 126.24 40.45, 163.24 0.13 M0.67 199.34 C57.05 138.7, 108.19 73.07, 173.87 0.09 M0.67 199.34 C46.21 144.15, 91.03 90.37, 173.87 0.09 M0.81 211.38 C60.14 142.34, 119.53 74.96, 184.5 0.06 M0.81 211.38 C59.27 142.02, 121.26 71.52, 184.5 0.06 M0.94 223.42 C77.67 136.71, 153.11 53.59, 195.13 0.03 M0.94 223.42 C38.79 175.02, 78.94 129.85, 195.13 0.03 M0.42 236.22 C83.48 144.07, 160.56 49.43, 205.76 -0.01 M0.42 236.22 C58.2 174.4, 112.79 109.37, 205.76 -0.01 M0.55 248.26 C50.26 188.84, 103.66 125.83, 216.39 -0.04 M0.55 248.26 C48.51 198.42, 96.11 144.09, 216.39 -0.04 M0.68 260.3 C88.72 158.69, 172.84 63.05, 227.02 -0.08 M0.68 260.3 C82.56 160.59, 168.6 62.31, 227.02 -0.08 M1.47 271.58 C78.56 181.51, 156.17 87.22, 237.65 -0.11 M1.47 271.58 C81.69 180.84, 160.28 89.95, 237.65 -0.11 M4.89 279.85 C64.5 204.92, 130.44 133.31, 248.28 -0.15 M4.89 279.85 C60.48 223.28, 111.75 162.34, 248.28 -0.15 M8.96 287.36 C74.99 204.21, 146.23 125.63, 258.91 -0.18 M8.96 287.36 C79.97 201.49, 153.51 118.3, 258.91 -0.18 M16.31 291.1 C77.57 219.58, 136.98 153.32, 269.54 -0.22 M16.31 291.1 C102.98 191.33, 188.16 91.86, 269.54 -0.22 M24.31 294.09 C80.5 230.04, 136.79 162, 280.17 -0.25 M24.31 294.09 C111.37 194.53, 200.66 93.45, 280.17 -0.25 M34.94 294.05 C124.01 189.49, 211.82 88.57, 290.15 0.47 M34.94 294.05 C116.43 199.26, 198.46 106.91, 290.15 0.47 M45.57 294.02 C115.35 213.95, 184.97 133.75, 299.47 1.94 M45.57 294.02 C101.69 226.93, 158.2 161.9, 299.47 1.94 M56.2 293.98 C135.74 197.39, 214.03 105.39, 306.82 5.68 M56.2 293.98 C136.56 200.68, 216.85 104.81, 306.82 5.68 M66.83 293.95 C135.42 215.65, 201.32 136.88, 312.2 11.69 M66.83 293.95 C155.54 186.73, 247.79 80.13, 312.2 11.69 M76.81 294.67 C140.87 219.47, 206.57 143.58, 316.92 18.44 M76.81 294.67 C155.45 203.6, 235.37 114.02, 316.92 18.44 M87.44 294.63 C133.2 236.81, 183.69 176.58, 318.37 28.98 M87.44 294.63 C169.87 201.31, 250.63 108.74, 318.37 28.98 M98.07 294.6 C148.08 234.93, 195.87 179.39, 318.5 41.02 M98.07 294.6 C170.93 213.63, 238.83 132.34, 318.5 41.02 M108.7 294.57 C157.08 235.14, 211.36 174.73, 317.98 53.81 M108.7 294.57 C152.81 246.98, 195.04 198.94, 317.98 53.81 M119.33 294.53 C196.14 207.53, 279.39 114.89, 318.11 65.85 M119.33 294.53 C167.83 239.77, 219.33 182.57, 318.11 65.85 M129.96 294.5 C174.83 239.72, 222.03 182.14, 318.25 77.89 M129.96 294.5 C188.07 227.94, 242.62 165.52, 318.25 77.89 M140.59 294.46 C189.74 242.39, 238.51 181.62, 318.38 89.94 M140.59 294.46 C198.98 229.33, 258.5 161.87, 318.38 89.94 M151.22 294.43 C195.5 239.49, 247.4 187.04, 318.51 101.98 M151.22 294.43 C196.93 241.29, 241.45 189.93, 318.51 101.98 M161.85 294.39 C193.48 257.47, 227.43 221.26, 317.99 114.77 M161.85 294.39 C214.15 232.81, 262.09 173.56, 317.99 114.77 M172.48 294.36 C214.25 239.8, 260.97 191.54, 318.12 126.81 M172.48 294.36 C218.24 239.47, 264.2 186.6, 318.12 126.81 M183.11 294.32 C233.54 235.64, 280.07 179.21, 318.25 138.85 M183.11 294.32 C214 257.83, 245.58 220.35, 318.25 138.85 M193.74 294.29 C225.52 258.7, 251.26 224.55, 318.39 150.89 M193.74 294.29 C226.38 256.53, 260.82 217.6, 318.39 150.89 M204.37 294.25 C245.06 246.41, 290.84 193.53, 318.52 162.94 M204.37 294.25 C230.95 259.79, 261.87 227.56, 318.52 162.94 M215 294.22 C254.58 246.1, 292.27 204.5, 318 175.73 M215 294.22 C247.88 257.96, 279.48 220, 318 175.73 M225.63 294.19 C252.92 256.81, 284.29 229.68, 318.13 187.77 M225.63 294.19 C258 257.68, 293.55 217.85, 318.13 187.77 M236.26 294.15 C264.83 263.06, 293.32 228.82, 318.26 199.81 M236.26 294.15 C258.69 266.36, 286.76 236.61, 318.26 199.81 M246.89 294.12 C270.56 269.34, 289.53 239.11, 318.4 211.85 M246.89 294.12 C275.5 263.52, 299.89 231.76, 318.4 211.85 M257.52 294.08 C277.78 270.35, 289.73 256.2, 318.53 223.89 M257.52 294.08 C272.75 277.14, 289.71 258.13, 318.53 223.89 M268.15 294.05 C286.99 278.35, 304.68 254.84, 318.01 236.69 M268.15 294.05 C284.18 275.38, 297.1 259.41, 318.01 236.69 M278.78 294.01 C289.31 279.32, 302.78 262.9, 318.14 248.73 M278.78 294.01 C293.28 276.08, 308.8 259.34, 318.14 248.73 M289.41 293.98 C296.83 284.11, 310.44 266.15, 318.27 260.77 M289.41 293.98 C297.76 282.56, 307.02 272.59, 318.27 260.77 M302.66 290.93 C306.91 287.24, 313.68 281.06, 316.44 275.08 M302.66 290.93 C305.79 287.38, 311.46 278.37, 316.44 275.08 M8.12 286.36 C8.12 286.36, 8.12 286.36, 8.12 286.36 M8.12 286.36 C8.12 286.36, 8.12 286.36, 8.12 286.36 M27.71 292.79 C16.03 289.08, 9.69 280.11, 1.3 269.82 M27.71 292.79 C20.47 288.57, 16.37 282.24, 1.3 269.82 M41.26 293.96 C33.46 287, 19.68 272.01, -0.25 257.88 M41.26 293.96 C31.3 284.44, 22.6 278.53, -0.25 257.88 M53.3 293.83 C34.67 279.63, 12.64 256.68, 0.47 247.91 M53.3 293.83 C33.68 278.62, 17.25 262.58, 0.47 247.91 M66.1 294.35 C47.4 279.59, 30.9 264.26, 0.44 237.28 M66.1 294.35 C46.03 276.72, 25.73 262.61, 0.44 237.28 M78.14 294.22 C50.58 265.88, 17.51 242.51, 0.41 226.65 M78.14 294.22 C58.41 282.82, 44.48 265.65, 0.41 226.65 M90.18 294.09 C62.88 274.04, 38.5 250.19, 0.37 216.02 M90.18 294.09 C57.26 264.8, 26.14 238.19, 0.37 216.02 M102.22 293.96 C70.55 267.1, 44.45 241.25, 0.34 205.39 M102.22 293.96 C74.73 269.1, 51.34 250.66, 0.34 205.39 M114.26 293.82 C68.46 256.99, 23.39 216.69, 0.3 194.76 M114.26 293.82 C69.49 250.28, 23.3 210.93, 0.3 194.76 M127.06 294.35 C90.73 256.75, 52.89 227.47, 0.27 184.13 M127.06 294.35 C80.47 254.81, 31.95 215.08, 0.27 184.13 M139.1 294.21 C83.28 249.79, 36.28 206.07, 0.23 173.5 M139.1 294.21 C99.8 254.2, 55.64 217.65, 0.23 173.5 M151.14 294.08 C101.67 246.5, 47.45 206.13, 0.2 162.87 M151.14 294.08 C103.56 254.61, 56.19 213.63, 0.2 162.87 M163.18 293.95 C104.31 242.73, 44.84 189.28, 0.16 152.24 M163.18 293.95 C106.26 239.85, 43.3 185.59, 0.16 152.24 M175.22 293.81 C134.77 256.19, 97.64 221.15, 0.13 141.61 M175.22 293.81 C123.44 248.85, 68.06 201.99, 0.13 141.61 M188.02 294.34 C143.18 261.62, 106.36 219.78, 0.09 130.98 M188.02 294.34 C127.55 238.62, 65.06 186.43, 0.09 130.98 M200.06 294.2 C142.76 240.79, 80.03 196.46, 0.06 120.35 M200.06 294.2 C128.09 230.73, 55.93 169.56, 0.06 120.35 M212.1 294.07 C144.91 239.51, 81.84 181.59, 0.78 110.37 M212.1 294.07 C130.01 224.61, 50.22 152.58, 0.78 110.37 M224.14 293.94 C151.6 230.95, 78.8 167.16, 0.75 99.74 M224.14 293.94 C136.44 214.91, 47.16 137.57, 0.75 99.74 M236.18 293.8 C173.18 239.95, 111.17 185.61, 0.71 89.11 M236.18 293.8 C147.2 220.37, 63.58 147.3, 0.71 89.11 M248.98 294.33 C170.6 229.51, 95.44 162.52, 0.68 78.48 M248.98 294.33 C171.9 224.21, 89.5 154.85, 0.68 78.48 M261.02 294.19 C199.83 237.83, 135.18 180.49, 0.64 67.85 M261.02 294.19 C162.62 208.5, 67.66 125.89, 0.64 67.85 M273.06 294.06 C210.64 237.98, 152.15 184.57, 0.61 57.22 M273.06 294.06 C174.32 208.59, 72.57 121.84, 0.61 57.22 M285.1 293.93 C198.07 219.11, 106.33 139.35, 0.57 46.59 M285.1 293.93 C190.01 213.79, 100.39 133.53, 0.57 46.59 M295.63 292.48 C214.81 226.92, 141.37 161.95, 0.54 35.96 M295.63 292.48 C206.01 214.11, 116.9 133.2, 0.54 35.96 M303.9 289.07 C233.97 227.73, 163.93 165.45, 0.5 25.33 M303.9 289.07 C240.4 230.29, 175.12 175.47, 0.5 25.33 M311.41 285 C186.96 179.7, 63.41 76.22, 3.49 17.33 M311.41 285 C224.42 213.65, 137.41 137.03, 3.49 17.33 M315.15 277.65 C234.02 209.35, 153.24 137.65, 7.23 9.98 M315.15 277.65 C235.3 207.65, 153.4 136.83, 7.23 9.98 M317.38 268.99 C245.67 207.62, 173.53 147.62, 13.23 4.59 M317.38 268.99 C207.62 170.68, 98.51 76.01, 13.23 4.59 M318.1 259.01 C205.35 164.11, 91.59 64.81, 21.5 1.18 M318.1 259.01 C212.69 167.1, 108.27 76.52, 21.5 1.18 M318.06 248.38 C209.01 158.4, 105.48 65.06, 32.03 -0.26 M318.06 248.38 C216.51 157.57, 112.31 66.2, 32.03 -0.26 M318.03 237.75 C252.51 181.08, 186.34 121.64, 44.07 -0.4 M318.03 237.75 C207.01 142.74, 97.36 49.35, 44.07 -0.4 M318 227.12 C216.83 140.55, 118.95 52.58, 56.87 0.13 M318 227.12 C248.59 168.26, 175.8 107.53, 56.87 0.13 M317.96 216.49 C255.14 161.22, 200.02 111.38, 68.91 -0.01 M317.96 216.49 C228.18 135.3, 135.43 56.26, 68.91 -0.01 M318.68 206.52 C246.99 144.12, 177.47 80.49, 80.95 -0.14 M318.68 206.52 C224.93 123.21, 134.04 41.92, 80.95 -0.14 M318.65 195.89 C260.64 150.25, 207.52 102.91, 92.99 -0.27 M318.65 195.89 C257.14 141.48, 194.31 86.4, 92.99 -0.27 M318.61 185.26 C253.88 124.58, 189.01 67.29, 105.03 -0.41 M318.61 185.26 C237.7 117.25, 153.72 42.68, 105.03 -0.41 M318.58 174.63 C274.55 130.42, 230.84 94.52, 117.83 0.12 M318.58 174.63 C236.57 106.96, 157.37 40.18, 117.83 0.12 M318.54 164 C278.73 126.44, 240.44 94.64, 129.87 -0.02 M318.54 164 C264.44 119.28, 211.67 73.59, 129.87 -0.02 M318.51 153.37 C268.24 109.58, 216.36 64.72, 141.91 -0.15 M318.51 153.37 C276.81 119.72, 236.34 82.29, 141.91 -0.15 M318.47 142.74 C280 112.4, 240.54 77.32, 153.95 -0.28 M318.47 142.74 C284.93 113.39, 247.09 81.98, 153.95 -0.28 M318.44 132.11 C287.32 105.23, 254.3 76.8, 165.99 -0.42 M318.44 132.11 C271.46 88.72, 222.17 46.72, 165.99 -0.42 M318.41 121.48 C263.27 70.33, 202.84 28.72, 178.78 0.11 M318.41 121.48 C276.01 85.5, 231.05 48.66, 178.78 0.11 M318.37 110.85 C284.26 80.51, 246.94 50.21, 190.83 -0.03 M318.37 110.85 C282.23 76.1, 244.82 45.75, 190.83 -0.03 M318.34 100.22 C282.94 73.56, 249.91 39.87, 202.87 -0.16 M318.34 100.22 C273.64 60.12, 228.77 22.04, 202.87 -0.16 M318.3 89.59 C286.39 63.23, 262.5 41.23, 214.91 -0.29 M318.3 89.59 C279.61 56, 242.2 21.99, 214.91 -0.29 M318.27 78.96 C281.89 49.79, 254.55 27.56, 226.95 -0.43 M318.27 78.96 C292.81 59.39, 267.78 37.71, 226.95 -0.43 M318.23 68.33 C291.13 46.07, 267.25 28.87, 239.74 0.1 M318.23 68.33 C293.98 48.62, 271.11 26.87, 239.74 0.1 M318.2 57.7 C302.45 47.8, 295.04 35.5, 251.78 -0.04 M318.2 57.7 C296.82 39.53, 274.2 22.65, 251.78 -0.04 M318.16 47.07 C305.11 39.54, 297.64 27.57, 263.83 -0.17 M318.16 47.07 C301.18 31.75, 282.06 14.14, 263.83 -0.17 M318.13 36.44 C305.93 30.2, 293.3 19.24, 275.87 -0.3 M318.13 36.44 C303.31 24.55, 286.62 6.97, 275.87 -0.3 M317.34 25.15 C309.82 19.29, 303.22 15.62, 287.91 -0.44 M317.34 25.15 C308.47 16.59, 298 5.38, 287.91 -0.44 M311.27 9.27 C308.47 7.47, 305.09 4.91, 305.23 4.02 M311.27 9.27 C309.96 7.82, 306.67 5.16, 305.23 4.02" stroke="#f5faff" stroke-width="1" fill="none"></path><path d="M32 0 C104.75 6.62, 171.74 6.38, 286 0 M32 0 C97.45 2.7, 159.18 4.84, 286 0 M286 0 C303.84 -3.75, 318.01 13.24, 318 32 M286 0 C302.92 1.64, 315.14 9.79, 318 32 M318 32 C318.98 113.49, 318.65 188.36, 318 262.25 M318 32 C320.03 111.89, 320.94 189.11, 318 262.25 M318 262.25 C315.82 280.03, 305.61 293.75, 286 294.25 M318 262.25 C317.5 280.58, 311.44 293.76, 286 294.25 M286 294.25 C192.01 295.92, 101.67 298.45, 32 294.25 M286 294.25 C198.88 291.09, 108.01 291.64, 32 294.25 M32 294.25 C7.72 294.2, -3.71 285.48, 0 262.25 M32 294.25 C10.68 291.54, 1.34 285.83, 0 262.25 M0 262.25 C-3.49 216.57, -0.21 164.86, 0 32 M0 262.25 C-0.68 206.16, -3.42 153.46, 0 32 M0 32 C-3.28 13.72, 13.41 -2.74, 32 0 M0 32 C-0.48 8, 7.25 2.98, 32 0" stroke="#f5faff" stroke-width="2" fill="none"></path></g><g transform="translate(25.028352974039535 16.244642370990732) rotate(0 76.35938262939453 156.384)"><text x="0" y="251.68049999999994" font-family="Cascadia, Segoe UI Emoji" font-size="260.63999999999993px" fill="#1e1e1e" text-anchor="start" style="white-space: pre;" direction="ltr" dominant-baseline="alphabetic">g</text></g><g transform="translate(157.2681870931333 10) rotate(0 76.35938262939453 156.384)"><text x="0" y="251.68049999999994" font-family="Cascadia, Segoe UI Emoji" font-size="260.63999999999993px" fill="#1e1e1e" text-anchor="start" style="white-space: pre;" direction="ltr" dominant-baseline="alphabetic">b</text></g></svg>